<?xml version="1.0" encoding="UTF-8"?> <svg xmlns="http://www.w3.org/2000/svg" xmlns:xlink="http://www.w3.org/1999/xlink" id="Layer_1" data-name="Layer 1" width="192" height="54" viewBox="0 0 192 54"><defs><style>.cls-1{fill:none;}.cls-2{fill:url(#linear-gradient);}.cls-3{opacity:0.3;}.cls-4{clip-path:url(#clip-path);}.cls-5{fill:url(#linear-gradient-2);}.cls-6{fill:url(#linear-gradient-3);}.cls-7{fill:url(#linear-gradient-4);}.cls-8{fill:url(#linear-gradient-5);}.cls-9{fill:url(#linear-gradient-6);}.cls-10{fill:url(#linear-gradient-7);}.cls-11{fill:url(#linear-gradient-8);}.cls-12{fill:url(#linear-gradient-9);}.cls-13{fill:url(#linear-gradient-10);}.cls-14{fill:url(#linear-gradient-11);}.cls-15{fill:url(#linear-gradient-12);}.cls-16{fill:url(#linear-gradient-13);}.cls-17{fill:url(#linear-gradient-14);}.cls-18{fill:url(#linear-gradient-15);}.cls-19{fill:url(#linear-gradient-16);}.cls-20{clip-path:url(#clip-path-3);}.cls-21{fill:url(#linear-gradient-17);}.cls-22{fill:url(#linear-gradient-18);}.cls-23{fill:url(#linear-gradient-19);}.cls-24{fill:url(#linear-gradient-20);}.cls-25{fill:url(#linear-gradient-21);}.cls-26{fill:url(#linear-gradient-22);}.cls-27{fill:url(#linear-gradient-23);}.cls-28{fill:#999;}.cls-29{fill:#00b9ad;}.cls-30{opacity:0.4;}.cls-31{clip-path:url(#clip-path-5);}.cls-32{fill:url(#linear-gradient-24);}.cls-33{fill:url(#linear-gradient-25);}.cls-34{fill:url(#linear-gradient-26);}.cls-35{fill:url(#linear-gradient-27);}</style><linearGradient id="linear-gradient" x1="7022.46" y1="7155.81" x2="7022.46" y2="7185.61" gradientTransform="matrix(1, 0.04, 0.04, -1, -186.12, 14071.8)" gradientUnits="userSpaceOnUse"><stop offset="0" stop-color="#762d90"></stop><stop offset="1" stop-color="#ec008c"></stop></linearGradient><clipPath id="clip-path" transform="translate(-7103.87 -7173.08)"><path class="cls-1" d="M7128.69,7191.89l-.1-1.62-.09-1.48c-.15-1.24-.61-2.19-2.39-1.1-2.93,1.78-4.73,0-4.89-2.95s1.43-4.92,4.53-3.47c1.66.77,2.15.14,2.25-.88l-.1-1.85-.2-3.27a1.89,1.89,0,0,0-1-1.57,5.21,5.21,0,0,0-3.43-.53,5.65,5.65,0,0,0-4,3,.7.7,0,0,1-.68.39,6.23,6.23,0,0,0-4.75,1.29,5.68,5.68,0,0,0-1.72,4.16.68.68,0,0,1-.24.5c-2.12,1.83-3,3.82-2.7,6.07a.72.72,0,0,1-.32.7,7.57,7.57,0,0,0-3.15,6.17,1.89,1.89,0,0,0,2,1.81l6.34-.37c1,.1,2.11.55,1.38,2.15-1,2.19.21,3.69,2.29,3.56s3.08-1.79,1.81-3.83c-.86-1.38,0-2,.88-2.26h0l6.6-.39a1.9,1.9,0,0,0,1.77-2Z"></path></clipPath><linearGradient id="linear-gradient-2" x1="6895.64" y1="6895.21" x2="6895.64" y2="6904.61" gradientTransform="matrix(0.99, 0.11, 0.11, -0.99, -488.94, 13301.77)" xlink:href="#linear-gradient"></linearGradient><linearGradient id="linear-gradient-3" x1="6898.08" y1="6904.63" x2="6898.08" y2="6906.4" gradientTransform="matrix(0.99, 0.11, 0.11, -0.99, -488.94, 13301.77)" xlink:href="#linear-gradient"></linearGradient><linearGradient id="linear-gradient-4" x1="6898.32" y1="6904.26" x2="6898.32" y2="6905.02" gradientTransform="matrix(0.99, 0.11, 0.11, -0.99, -488.94, 13301.77)" xlink:href="#linear-gradient"></linearGradient><linearGradient id="linear-gradient-5" x1="6897.1" y1="6905.04" x2="6897.1" y2="6905.93" gradientTransform="matrix(0.99, 0.11, 0.11, -0.99, -488.94, 13301.77)" xlink:href="#linear-gradient"></linearGradient><linearGradient id="linear-gradient-6" x1="6891.84" y1="6903.75" x2="6891.84" y2="6905.14" gradientTransform="matrix(0.99, 0.11, 0.11, -0.99, -488.94, 13301.77)" xlink:href="#linear-gradient"></linearGradient><linearGradient id="linear-gradient-7" x1="6892.73" y1="6904.17" x2="6892.73" y2="6905.16" gradientTransform="matrix(0.99, 0.11, 0.11, -0.99, -488.94, 13301.77)" xlink:href="#linear-gradient"></linearGradient><linearGradient id="linear-gradient-8" x1="6891.91" y1="6903.21" x2="6891.91" y2="6903.73" gradientTransform="matrix(0.99, 0.11, 0.11, -0.99, -488.94, 13301.77)" xlink:href="#linear-gradient"></linearGradient><linearGradient id="linear-gradient-9" x1="6894.52" y1="6905.17" x2="6894.52" y2="6906.85" gradientTransform="matrix(0.99, 0.11, 0.11, -0.99, -488.94, 13301.77)" xlink:href="#linear-gradient"></linearGradient><linearGradient id="linear-gradient-10" x1="6890.88" y1="6901.56" x2="6890.88" y2="6902.03" gradientTransform="matrix(0.99, 0.11, 0.11, -0.99, -488.94, 13301.77)" xlink:href="#linear-gradient"></linearGradient><linearGradient id="linear-gradient-11" x1="6898.97" y1="6903.18" x2="6898.97" y2="6903.58" gradientTransform="matrix(0.99, 0.11, 0.11, -0.99, -488.94, 13301.77)" xlink:href="#linear-gradient"></linearGradient><linearGradient id="linear-gradient-12" x1="7114.09" y1="7214.93" x2="7114.09" y2="7222.23" gradientTransform="matrix(1, 0, 0, -1, 0, 14401)" xlink:href="#linear-gradient"></linearGradient><linearGradient id="linear-gradient-13" x1="7117.29" y1="7214.93" x2="7117.29" y2="7222.23" gradientTransform="matrix(1, 0, 0, -1, 0, 14401)" xlink:href="#linear-gradient"></linearGradient><linearGradient id="linear-gradient-14" x1="7118.62" y1="7214.93" x2="7118.62" y2="7222.23" gradientTransform="matrix(1, 0, 0, -1, 0, 14401)" xlink:href="#linear-gradient"></linearGradient><linearGradient id="linear-gradient-15" x1="7026.63" y1="7101.96" x2="7057.64" y2="7101.96" gradientTransform="matrix(1, 0.04, 0.04, -1, -169.02, 14060.98)" gradientUnits="userSpaceOnUse"><stop offset="0" stop-color="#ffc20e"></stop><stop offset="1" stop-color="#f7941d"></stop></linearGradient><linearGradient id="linear-gradient-16" x1="7124.84" y1="7215.92" x2="7153.83" y2="7215.92" gradientTransform="matrix(1, 0, 0, -1, 0, 14401)" gradientUnits="userSpaceOnUse"><stop offset="0" stop-color="#00b6f1"></stop><stop offset="1" stop-color="#6fd0f6"></stop></linearGradient><clipPath id="clip-path-3" transform="translate(-7103.87 -7173.08)"><path class="cls-1" d="M7150.33,7188.77a.7.7,0,0,1-.36-.67c.17-2.27-.83-4.2-3.06-5.9a.71.71,0,0,1-.27-.48,5.64,5.64,0,0,0-2-4.07,6.27,6.27,0,0,0-4.82-1,.7.7,0,0,1-.7-.34,5.63,5.63,0,0,0-4.15-2.79,5.12,5.12,0,0,0-3.44.76,1.88,1.88,0,0,0-.87,1.59v6.34c-.21.86-.77,1.67-2.17.94-2.12-1.12-3.69,0-3.68,2.08s1.6,3.18,3.71,2c1.31-.72,1.89,0,2.14.77v6.75a1.9,1.9,0,0,0,1.89,1.9h4.52c1.55,0,3.15-.17,2-2.36-1.63-3,.23-4.72,3.2-4.73s4.84,1.69,3.23,4.72c-1.21,2.27.46,2.37,2.12,2.37h4.32a1.88,1.88,0,0,0,1.89-1.83A7.53,7.53,0,0,0,7150.33,7188.77Z"></path></clipPath><linearGradient id="linear-gradient-17" x1="7831.95" y1="7900.77" x2="7846.46" y2="7900.77" gradientTransform="matrix(0.96, -0.27, -0.27, -0.96, 1770.02, 16933.16)" xlink:href="#linear-gradient-16"></linearGradient><linearGradient id="linear-gradient-18" x1="6364.16" y1="5107.38" x2="6372.09" y2="5107.38" gradientTransform="matrix(0.8, 0.6, 0.6, -0.8, -1028, 7420.68)" xlink:href="#linear-gradient-16"></linearGradient><linearGradient id="linear-gradient-19" x1="6363.21" y1="5114.38" x2="6369.03" y2="5114.38" gradientTransform="matrix(0.8, 0.6, 0.6, -0.8, -1028, 7420.68)" xlink:href="#linear-gradient-16"></linearGradient><linearGradient id="linear-gradient-20" x1="6363.21" y1="5117.25" x2="6369.03" y2="5117.25" gradientTransform="matrix(0.8, 0.6, 0.6, -0.8, -1028, 7420.68)" xlink:href="#linear-gradient-16"></linearGradient><linearGradient id="linear-gradient-21" x1="6363.21" y1="5115.87" x2="6369.03" y2="5115.87" gradientTransform="matrix(0.8, 0.6, 0.6, -0.8, -1028, 7420.68)" xlink:href="#linear-gradient-16"></linearGradient><linearGradient id="linear-gradient-22" x1="6363.21" y1="5115.95" x2="6369.03" y2="5115.95" gradientTransform="matrix(0.8, 0.6, 0.6, -0.8, -1028, 7420.68)" xlink:href="#linear-gradient-16"></linearGradient><linearGradient id="linear-gradient-23" x1="6363.21" y1="5114.87" x2="6369.03" y2="5114.87" gradientTransform="matrix(0.8, 0.6, 0.6, -0.8, -1028, 7420.68)" xlink:href="#linear-gradient-16"></linearGradient><clipPath id="clip-path-5" transform="translate(-7103.87 -7173.08)"><path class="cls-1" d="M7131.5,7207.67c-1.46.76-2-.16-2.19-1.06l0-6.55a1.88,1.88,0,0,0-1.88-1.9l-3.74,0h-2.35c-.85.21-1.29.77-.51,2.23,1.61,3-.25,4.72-3.22,4.71s-4.83-1.7-3.21-4.72c.8-1.5.34-2.05-.55-2.25l-6.45,0a1.88,1.88,0,0,0-1.63.92c-1.79,3-2.21,7.12.45,9.9a.71.71,0,0,1,.16.71c-.69,2.15.08,3.76,2.29,4.79a.67.67,0,0,1,.38.56c.39,4.29,2.32,6.53,6.08,7a.7.7,0,0,1,.49.31,7.44,7.44,0,0,0,4.84,3.5c2.31.44,5-.28,7.89-2.13a1.89,1.89,0,0,0,.86-1.59l.05-9.09v-.39c.25-.82.83-1.55,2.16-.81,2.1,1.16,3.7.08,3.72-2S7133.63,7206.56,7131.5,7207.67Z"></path></clipPath><linearGradient id="linear-gradient-24" x1="8519.83" y1="8193.49" x2="8538.68" y2="8193.49" gradientTransform="matrix(0.88, -0.48, -0.48, -0.88, 3565.55, 18500.76)" xlink:href="#linear-gradient-15"></linearGradient><linearGradient id="linear-gradient-25" x1="7385.6" y1="7475.84" x2="7395.61" y2="7475.84" gradientTransform="matrix(0.99, -0.11, -0.11, -0.99, 566.36, 15435.43)" xlink:href="#linear-gradient-15"></linearGradient><linearGradient id="linear-gradient-26" x1="7125.19" y1="7192.38" x2="7128.04" y2="7192.38" gradientTransform="matrix(1, 0, 0, -1, 0, 14401)" xlink:href="#linear-gradient-15"></linearGradient><linearGradient id="linear-gradient-27" x1="7122.12" y1="7195.94" x2="7126.06" y2="7195.94" gradientTransform="matrix(1, 0, 0, -1, 0, 14401)" xlink:href="#linear-gradient-15"></linearGradient></defs><path class="cls-2" d="M7128.69,7191.89l-.1-1.62-.09-1.48c-.15-1.24-.61-2.19-2.39-1.1-2.93,1.78-4.73,0-4.89-2.95s1.43-4.92,4.53-3.47c1.66.77,2.15.14,2.25-.88l-.1-1.85-.2-3.27a1.89,1.89,0,0,0-1-1.57,5.21,5.21,0,0,0-3.43-.53,5.65,5.65,0,0,0-4,3,.7.7,0,0,1-.68.39,6.23,6.23,0,0,0-4.75,1.29,5.68,5.68,0,0,0-1.72,4.16.68.68,0,0,1-.24.5c-2.12,1.83-3,3.82-2.7,6.07a.72.72,0,0,1-.32.7,7.57,7.57,0,0,0-3.15,6.17,1.89,1.89,0,0,0,2,1.81l6.34-.37c1,.1,2.11.55,1.38,2.15-1,2.19.21,3.69,2.29,3.56s3.08-1.79,1.81-3.83c-.86-1.38,0-2,.88-2.26h0l6.6-.39a1.9,1.9,0,0,0,1.77-2Z" transform="translate(-7103.87 -7173.08)"></path><g class="cls-3"><g class="cls-4"><path class="cls-5" d="M7118.27,7190.26a3.46,3.46,0,0,0-3.87,2.12,2.92,2.92,0,0,0,.67,2.88l.09.09a15.07,15.07,0,0,0,1.69,1.13,2.77,2.77,0,0,1,.81.86c-.26.12-.21.56.06.7a.45.45,0,0,0,.19.59.43.43,0,0,0,.3.63h.22a1.51,1.51,0,0,0,.09.18.88.88,0,0,0,1.58-.5,1.23,1.23,0,0,0,0-.2l.17-.13a.45.45,0,0,0-.11-.7.44.44,0,0,0-.19-.59c.16-.27-.06-.67-.34-.61a2.62,2.62,0,0,1,.18-1.17,15.23,15.23,0,0,0,.74-1.9,3.62,3.62,0,0,0,.06-.46h0a2.93,2.93,0,0,0-1.12-2.41A2.75,2.75,0,0,0,7118.27,7190.26Z" transform="translate(-7103.87 -7173.08)"></path><path class="cls-6" d="M7120.87,7188.79a2.56,2.56,0,0,0-.63.64,7.09,7.09,0,0,0-.59.74c-.07.11.06.29.19.21s.48-.36.71-.55a2.72,2.72,0,0,0,.67-.64C7121.34,7189,7121.14,7188.65,7120.87,7188.79Z" transform="translate(-7103.87 -7173.08)"></path><path class="cls-7" d="M7120.79,7190.16a3.11,3.11,0,0,0-.4.22,1.08,1.08,0,0,0-.32.24.13.13,0,0,0,.1.2,1,1,0,0,0,.39-.1c.15-.06.29-.11.43-.18A.21.21,0,1,0,7120.79,7190.16Z" transform="translate(-7103.87 -7173.08)"></path><path class="cls-8" d="M7119.62,7189.64c.05-.09.09-.18.13-.27a.22.22,0,1,0-.42-.14,1,1,0,0,0-.1.24,1.14,1.14,0,0,0-.06.25.16.16,0,0,0,.29.14C7119.51,7189.79,7119.57,7189.72,7119.62,7189.64Z" transform="translate(-7103.87 -7173.08)"></path><path class="cls-9" d="M7114.75,7190.72c.11.07.29-.07.2-.2a6.17,6.17,0,0,0-.59-.66,2.32,2.32,0,0,0-.67-.62c-.24-.1-.53.12-.38.37a2.18,2.18,0,0,0,.66.58A7.12,7.12,0,0,0,7114.75,7190.72Z" transform="translate(-7103.87 -7173.08)"></path><path class="cls-10" d="M7115.2,7190.35a.14.14,0,0,0,.2-.12,1.29,1.29,0,0,0-.12-.38c-.07-.13-.12-.28-.2-.41s-.51,0-.38.23.16.25.24.38A1.06,1.06,0,0,0,7115.2,7190.35Z" transform="translate(-7103.87 -7173.08)"></path><path class="cls-11" d="M7114.06,7191.19l.26.05c.18,0,.3-.2.13-.3a1.94,1.94,0,0,0-.24-.15l-.27-.11a.24.24,0,0,0-.29.15.23.23,0,0,0,.16.28Z" transform="translate(-7103.87 -7173.08)"></path><path class="cls-12" d="M7117.22,7189.43a10.3,10.3,0,0,0,0-1.36.24.24,0,0,0-.17-.19.2.2,0,0,0-.2,0,.26.26,0,0,0-.14.28,9,9,0,0,0,.24,1.28A.14.14,0,0,0,7117.22,7189.43Z" transform="translate(-7103.87 -7173.08)"></path><path class="cls-13" d="M7113.8,7192.69a1.54,1.54,0,0,0-.76-.33,1.76,1.76,0,0,0-1-.12.13.13,0,0,0-.05.23,1.76,1.76,0,0,0,.95.26,1.47,1.47,0,0,0,.83,0A.06.06,0,0,0,7113.8,7192.69Z" transform="translate(-7103.87 -7173.08)"></path><path class="cls-14" d="M7121.31,7191.63a5.05,5.05,0,0,0-.55.18.09.09,0,0,0,0,.17l.56-.07a.15.15,0,0,0,.11-.13.08.08,0,0,0,0-.07A.14.14,0,0,0,7121.31,7191.63Z" transform="translate(-7103.87 -7173.08)"></path></g><g class="cls-4"><path class="cls-15" d="M7111.5,7183.26c.34.43.91,1.09,1.39,1.63h0l.48.51.34.36h0l.05,0,.18-.12.08-.06.39-.28,0,0,.15-.11,0-.05.14-.11.05,0,.16-.13a0,0,0,0,1,0,0h0l.2-.18.07-.06a.27.27,0,0,1-.07-.08c-.14-.18-.34-.41-.55-.63-.05-.07-.11-.12-.17-.19-.28-.3-.56-.6-.74-.81s-1.09-1.15-1.08-1.62a.3.3,0,0,1,0-.16l0,0a.36.36,0,0,1,.1-.11l.12-.09h0l.08,0c.47-.06,1.31,1,1.57,1.27l.7.82c.3.35.61.7.82.91h0l.25-.23v0l0,0a1.21,1.21,0,0,0,.16-.16l.07-.06.2-.21v0l.14-.15.05-.06.14-.17c0-.05.09-.1.13-.16l0,0,.14-.15h0l-.21-.26-.57-.67c-.47-.52-1-1.11-1.37-1.48a3.14,3.14,0,0,0-2.45-1.12,2.29,2.29,0,0,0-1,.4l-.12.09-.22.19-.22.19C7110.17,7180.78,7110.64,7182.19,7111.5,7183.26Z" transform="translate(-7103.87 -7173.08)"></path><path class="cls-16" d="M7118.68,7185.91c-.37-.39-.71-.8-1.1-1.17,0,0,0,0-.06-.05a.23.23,0,0,0-.35.13c0,.12-.07.24-.11.35a.14.14,0,0,1,0,.07l-.73-.52-.27-.19c-.1-.08-.23.05-.14.14.37.39.72.8,1.1,1.17l.06,0a.22.22,0,0,0,.35-.12c0-.12.08-.24.11-.36l0-.06.73.52.27.19C7118.64,7186.13,7118.78,7186,7118.68,7185.91Z" transform="translate(-7103.87 -7173.08)"></path><path class="cls-17" d="M7117.31,7181.52c.43.17.85.38,1.28.53l.06,0a.2.2,0,0,0,.23-.22,3.11,3.11,0,0,0,0-.32v-.06l.76.16.28.06a.09.09,0,0,0,.06-.17c-.43-.17-.85-.38-1.29-.53l-.06,0a.2.2,0,0,0-.23.22c0,.11,0,.22,0,.32v.06l-.76-.15-.28-.06A.09.09,0,1,0,7117.31,7181.52Z" transform="translate(-7103.87 -7173.08)"></path></g></g><path class="cls-18" d="M7131.5,7207.67c-1.46.76-2-.16-2.19-1.06l0-6.55a1.88,1.88,0,0,0-1.88-1.9l-3.74,0h-2.35c-.85.21-1.29.77-.51,2.23,1.61,3-.25,4.72-3.22,4.71s-4.83-1.7-3.21-4.72c.8-1.5.34-2.05-.55-2.25l-6.45,0a1.88,1.88,0,0,0-1.63.92c-1.79,3-2.21,7.12.45,9.9a.71.71,0,0,1,.16.71c-.69,2.15.08,3.76,2.29,4.79a.67.67,0,0,1,.38.56c.39,4.29,2.32,6.53,6.08,7a.7.7,0,0,1,.49.31,7.44,7.44,0,0,0,4.84,3.5c2.31.44,5-.28,7.89-2.13a1.89,1.89,0,0,0,.86-1.59l.05-9.09v-.39c.25-.82.83-1.55,2.16-.81,2.1,1.16,3.7.08,3.72-2S7133.63,7206.56,7131.5,7207.67Z" transform="translate(-7103.87 -7173.08)"></path><path class="cls-19" d="M7150.33,7188.77a.7.7,0,0,1-.36-.67c.17-2.27-.83-4.2-3.06-5.9a.71.71,0,0,1-.27-.48,5.64,5.64,0,0,0-2-4.07,6.27,6.27,0,0,0-4.82-1,.7.7,0,0,1-.7-.34,5.63,5.63,0,0,0-4.15-2.79,5.12,5.12,0,0,0-3.44.76,1.88,1.88,0,0,0-.87,1.59v6.34c-.21.86-.77,1.67-2.17.94-2.12-1.12-3.69,0-3.68,2.08s1.6,3.18,3.71,2c1.31-.72,1.89,0,2.14.77v6.75a1.9,1.9,0,0,0,1.89,1.9h4.52c1.55,0,3.15-.17,2-2.36-1.63-3,.23-4.72,3.2-4.73s4.84,1.69,3.23,4.72c-1.21,2.27.46,2.37,2.12,2.37h4.32a1.88,1.88,0,0,0,1.89-1.83A7.53,7.53,0,0,0,7150.33,7188.77Z" transform="translate(-7103.87 -7173.08)"></path><g class="cls-3"><g class="cls-20"><path class="cls-21" d="M7147.1,7187.39l-.32-.72c-.16-.37-.33-.74-.48-1.06s-.29-.62-.37-.81h0s0,0,0,0l-.39-.94c-.49-1.17-1-2.39-1.62-3.72-.46-1-.87-1.9-1.29-2.77-.33-.7-.69-1.43-1.05-2.15-.09-.17-.17-.35-.26-.53l-.15-.32-.33.14-2.43,1.1-2.29,1.09-.22.11c-1.05.51-1.91.94-2.72,1.35s-1.22.63-1.71.9l-.49.26-.25.13-.59.3.58.32c.9.51,2,1.07,2.92,1.5l.72.35c.65.31,1.26.61,1.72.85l3.08,1.56,1.27.63,1.36.69.95.48,1.64.83.27.13,3.12,1.56Zm-5.62-4.27-.11-.06-.67-.34-.4-.2-.56-.28-.52-.26-1.27-.64-.71-.35-.29-.15c-.37-.18-.84-.41-1.21-.61l-.24-.14.25-.12.1-.05.2-.11.71-.37,1.12-.56.09,0,.94-.45,1-.45.14-.06.06.13.11.22c.15.3.29.59.43.89s.34.73.53,1.14.47,1,.67,1.53l.16.39h0c0,.08.09.19.15.33l.2.44.13.3.27.5Z" transform="translate(-7103.87 -7173.08)"></path></g><g class="cls-20"><path class="cls-22" d="M7131.67,7202.26a22.65,22.65,0,0,0,.8-2.7c.67-2.29,1.83-6.4,2.57-8.66l.18,0c.64.08,1.1-.72.4-1l-.28-.11a24.4,24.4,0,0,0-2.67-.71l-.29-.08a.58.58,0,1,0-.25,1.12l.19,0c-.43,1.59-.84,3.2-1.28,4.79-.29,1.08-1.14,4-1.38,5a5.3,5.3,0,0,0-.24,2.64,1.15,1.15,0,0,0,.49.58,1,1,0,0,0,1.19-.12A2.1,2.1,0,0,0,7131.67,7202.26Z" transform="translate(-7103.87 -7173.08)"></path><path class="cls-23" d="M7132.63,7187.69s0,0,0,0S7132.64,7187.68,7132.63,7187.69Z" transform="translate(-7103.87 -7173.08)"></path><path class="cls-24" d="M7137.41,7185.92l-.06,0a.43.43,0,0,0,.19-.55.61.61,0,0,0-.34-.27,1.14,1.14,0,0,0-.55,0,2.53,2.53,0,0,0-1.95,1.85,2.49,2.49,0,0,0,0,1l0,.13a.77.77,0,0,0,.08.19.2.2,0,0,0,.08.08c.24.13.68-.21.93-.27a2.36,2.36,0,0,1,1.12,0,1.94,1.94,0,0,0,.58.12c.25,0,.6-.2.46-.48l0,0a1,1,0,0,0-.19-.25l0,0,.18,0a.86.86,0,0,0,1-.41.58.58,0,0,0,0-.39.37.37,0,0,0,0-.15C7138.67,7185.92,7137.94,7185.83,7137.41,7185.92Z" transform="translate(-7103.87 -7173.08)"></path><path class="cls-25" d="M7137.06,7188.68a1.41,1.41,0,0,0-1.08-.06h0s0,0,0,0c.05.23.39.37.54.54s.34.51.68.54a.45.45,0,0,0,.43-.18.46.46,0,0,0,0-.42A.91.91,0,0,0,7137.06,7188.68Z" transform="translate(-7103.87 -7173.08)"></path><path class="cls-26" d="M7134.1,7185.77l-.08-.06c-.28-.15-.57.09-.68.33a1.44,1.44,0,0,0-.09.87,1.14,1.14,0,0,0,.55.77s0,0,0,0,.05,0,.07,0,0-.07,0-.11a1.25,1.25,0,0,1-.08-.69c0-.23.29-.41.39-.63A.47.47,0,0,0,7134.1,7185.77Z" transform="translate(-7103.87 -7173.08)"></path><path class="cls-27" d="M7132.78,7186.79a.26.26,0,0,0-.2-.1.17.17,0,0,0-.17.08.45.45,0,0,0,.05.56.49.49,0,0,0,.26.21.19.19,0,0,0,.13,0,.1.1,0,0,0,.06-.14s-.05-.08-.07-.13S7132.91,7187,7132.78,7186.79Z" transform="translate(-7103.87 -7173.08)"></path></g></g><path class="cls-28" d="M7166.14,7196.88h-4.92V7201h5.83v2.62h-9V7188h9v2.64h-5.8v3.7h4.92v2.55Z" transform="translate(-7103.87 -7173.08)"></path><path class="cls-28" d="M7168.86,7203.65V7188H7173a5.72,5.72,0,0,1,4.38,1.74,6.88,6.88,0,0,1,1.66,4.78v2.54a6.82,6.82,0,0,1-1.63,4.84,5.79,5.79,0,0,1-4.49,1.76Zm3.16-13V7201h.95a2.68,2.68,0,0,0,2.23-.83,5,5,0,0,0,.67-2.88v-2.72a5.52,5.52,0,0,0-.61-3.06,2.47,2.47,0,0,0-2.09-.91Z" transform="translate(-7103.87 -7173.08)"></path><path class="cls-28" d="M7191.5,7188v10.85a5.09,5.09,0,0,1-1.35,3.73,5.18,5.18,0,0,1-3.8,1.3,5.27,5.27,0,0,1-3.84-1.31,5.1,5.1,0,0,1-1.33-3.8V7188h3.19v10.78a3.19,3.19,0,0,0,.43,1.9,2.42,2.42,0,0,0,3.11,0,3.26,3.26,0,0,0,.43-1.86V7188Z" transform="translate(-7103.87 -7173.08)"></path><path class="cls-28" d="M7204.51,7198.44a5.88,5.88,0,0,1-1.5,4.05,5.34,5.34,0,0,1-3.92,1.38,4.92,4.92,0,0,1-4.07-1.75,7.72,7.72,0,0,1-1.42-5v-2.63a7.55,7.55,0,0,1,1.47-5,5.78,5.78,0,0,1,8-.32,6.5,6.5,0,0,1,1.51,4.11h-3.17a4.21,4.21,0,0,0-.51-2.28,2,2,0,0,0-1.71-.63,1.91,1.91,0,0,0-1.8.89,6.18,6.18,0,0,0-.56,2.92v3a6.79,6.79,0,0,0,.52,3.2,1.92,1.92,0,0,0,1.79.87,2,2,0,0,0,1.72-.61,3.9,3.9,0,0,0,.54-2.2h3.16Z" transform="translate(-7103.87 -7173.08)"></path><path class="cls-28" d="M7213.93,7200.45h-4.31l-.84,3.2h-3.34l4.89-15.66h2.9l4.92,15.66h-3.38Zm-3.62-2.64h2.92l-1.46-5.58Z" transform="translate(-7103.87 -7173.08)"></path><path class="cls-28" d="M7228.47,7190.63h-3.88v13h-3.17v-13h-3.81V7188h10.86v2.64Z" transform="translate(-7103.87 -7173.08)"></path><path class="cls-28" d="M7233.59,7203.65h-3.17V7188h3.17Z" transform="translate(-7103.87 -7173.08)"></path><path class="cls-28" d="M7247.27,7197.23a7.31,7.31,0,0,1-1.49,4.89,5.13,5.13,0,0,1-4.14,1.75,5.23,5.23,0,0,1-4.14-1.73,7.18,7.18,0,0,1-1.52-4.83v-2.68a7.69,7.69,0,0,1,1.49-5,5.65,5.65,0,0,1,8.27,0,7.56,7.56,0,0,1,1.53,5v2.68Zm-3.17-2.62a6.35,6.35,0,0,0-.61-3.16,2.22,2.22,0,0,0-3.73,0,6.06,6.06,0,0,0-.62,3v2.79a5.83,5.83,0,0,0,.61,3,2.08,2.08,0,0,0,1.9,1,2,2,0,0,0,1.83-.95,5.66,5.66,0,0,0,.62-2.95v-2.72Z" transform="translate(-7103.87 -7173.08)"></path><path class="cls-28" d="M7260.49,7203.65h-3.16l-4.63-10.27v10.27h-3.16V7188h3.16l4.64,10.28V7188h3.15v15.66Z" transform="translate(-7103.87 -7173.08)"></path><path class="cls-28" d="M7168.19,7210.58h-3.87v13h-3.17v-13h-3.81v-2.64h10.85Z" transform="translate(-7103.87 -7173.08)"></path><path class="cls-28" d="M7181,7223.6h-3.16v-6.7h-4.67v6.7H7170v-15.66h3.16v6.34h4.67v-6.34H7181Z" transform="translate(-7103.87 -7173.08)"></path><path class="cls-28" d="M7191.2,7220.4h-4.31l-.84,3.2h-3.34l4.89-15.66h2.9l4.92,15.66H7192Zm-3.62-2.64h2.93l-1.47-5.58Z" transform="translate(-7103.87 -7173.08)"></path><path class="cls-28" d="M7205.74,7210.58h-3.87v13h-3.18v-13h-3.81v-2.64h10.86v2.64Z" transform="translate(-7103.87 -7173.08)"></path><path class="cls-28" d="M7215.29,7223.6h-3.17v-15.66h3.17Z" transform="translate(-7103.87 -7173.08)"></path><path class="cls-28" d="M7228.9,7223.6h-3.17l-4.62-10.27v10.27h-3.17v-15.66h3.17l4.63,10.28v-10.28h3.15v15.66Z" transform="translate(-7103.87 -7173.08)"></path><path class="cls-28" d="M7238.05,7219.49a1.93,1.93,0,0,0-.49-1.44,5.47,5.47,0,0,0-1.78-1,8.26,8.26,0,0,1-3.39-2.09,4.23,4.23,0,0,1-1-2.83,4,4,0,0,1,1.4-3.18,5.83,5.83,0,0,1,6.14-.59,4.16,4.16,0,0,1,1.74,1.71,5.22,5.22,0,0,1,.61,2.52h-3.16a2.63,2.63,0,0,0-.46-1.68,1.65,1.65,0,0,0-1.35-.57,1.69,1.69,0,0,0-1.3.49,1.85,1.85,0,0,0-.46,1.32,1.58,1.58,0,0,0,.52,1.16,5.91,5.91,0,0,0,1.83,1.09,7.88,7.88,0,0,1,3.33,2,4.54,4.54,0,0,1,1,3.07,4,4,0,0,1-1.3,3.19,5.11,5.11,0,0,1-3.54,1.15,6.15,6.15,0,0,1-2.76-.62,4.69,4.69,0,0,1-1.95-1.79,5.18,5.18,0,0,1-.71-2.74h3.18a3,3,0,0,0,.52,2,2.18,2.18,0,0,0,1.73.61C7237.5,7221.25,7238.05,7220.66,7238.05,7219.49Z" transform="translate(-7103.87 -7173.08)"></path><path class="cls-28" d="M7246.5,7218.1v5.5h-3.17v-15.66h5.34a4.88,4.88,0,0,1,3.7,1.44,5.2,5.2,0,0,1,1.39,3.75,4.85,4.85,0,0,1-1.37,3.63,5.19,5.19,0,0,1-3.79,1.34Zm0-2.64h2.17a1.74,1.74,0,0,0,1.4-.59,2.63,2.63,0,0,0,.49-1.72,3.14,3.14,0,0,0-.5-1.87,1.65,1.65,0,0,0-1.36-.71h-2.2Z" transform="translate(-7103.87 -7173.08)"></path><path class="cls-28" d="M7259.17,7223.6H7256v-15.66h3.17Z" transform="translate(-7103.87 -7173.08)"></path><path class="cls-28" d="M7266.57,7217.88H7265v5.72h-3.16v-15.66h5a5.1,5.1,0,0,1,3.67,1.23,5.35,5.35,0,0,1-1,7.87l2.74,6.41v.15h-3.4Zm-1.57-2.64h1.79a1.68,1.68,0,0,0,1.42-.62,2.71,2.71,0,0,0,.48-1.69c0-1.57-.62-2.35-1.84-2.35H7265v4.66Z" transform="translate(-7103.87 -7173.08)"></path><path class="cls-28" d="M7282.11,7216.82h-4.92V7221H7283v2.62h-9v-15.66h9v2.64h-5.8v3.7h4.92Z" transform="translate(-7103.87 -7173.08)"></path><path class="cls-28" d="M7291.45,7219.49a1.93,1.93,0,0,0-.49-1.44,5.58,5.58,0,0,0-1.78-1,8.26,8.26,0,0,1-3.39-2.09,4.18,4.18,0,0,1-1-2.83,4,4,0,0,1,1.4-3.18,5.83,5.83,0,0,1,6.14-.59,4.22,4.22,0,0,1,1.74,1.71,5.21,5.21,0,0,1,.6,2.52h-3.15a2.57,2.57,0,0,0-.47-1.68,1.64,1.64,0,0,0-1.35-.57,1.68,1.68,0,0,0-1.29.49,1.85,1.85,0,0,0-.46,1.32,1.58,1.58,0,0,0,.52,1.16,5.91,5.91,0,0,0,1.83,1.09,8,8,0,0,1,3.33,2,4.54,4.54,0,0,1,1,3.07,4,4,0,0,1-1.3,3.19,5.15,5.15,0,0,1-3.54,1.15,6.15,6.15,0,0,1-2.76-.62,4.69,4.69,0,0,1-1.95-1.79,5.09,5.09,0,0,1-.71-2.74h3.17a3,3,0,0,0,.53,2,2.16,2.16,0,0,0,1.72.61C7290.9,7221.25,7291.45,7220.66,7291.45,7219.49Z" transform="translate(-7103.87 -7173.08)"></path><path class="cls-29" d="M7133.35,7205.86v-7h-2.21v7.69a2.27,2.27,0,0,0,.92-.27A3.8,3.8,0,0,1,7133.35,7205.86Z" transform="translate(-7103.87 -7173.08)"></path><path class="cls-29" d="M7142.89,7205.17a4.88,4.88,0,0,1-1.46,3.94l1.51,1.35-1.39,1.28-2-1.84-.57,0a3.55,3.55,0,0,1-2.9-1.26,5.33,5.33,0,0,1-1.06-3.48v-1.71a5.37,5.37,0,0,1,1.05-3.52,4,4,0,0,1,5.75-.05,5.2,5.2,0,0,1,1.09,3.42v1.83Zm-2.21-1.69a4.46,4.46,0,0,0-.43-2.21,1.55,1.55,0,0,0-2.61,0,4.27,4.27,0,0,0-.43,2.11v1.81a4.35,4.35,0,0,0,.43,2.21,1.43,1.43,0,0,0,1.32.72,1.4,1.4,0,0,0,1.28-.71,4.26,4.26,0,0,0,.43-2.17v-1.74Z" transform="translate(-7103.87 -7173.08)"></path><path class="cls-29" d="M7136.13,7212.78v7.56a2.23,2.23,0,0,1-.29,1.29,1.7,1.7,0,0,1-2.17,0,2.27,2.27,0,0,1-.3-1.33v-6.67a3.62,3.62,0,0,1-1.36-.45,2.16,2.16,0,0,0-.86-.3v7.41a3.59,3.59,0,0,0,.92,2.65,4.35,4.35,0,0,0,5.34,0,3.5,3.5,0,0,0,.93-2.6v-7.57Z" transform="translate(-7103.87 -7173.08)"></path><path class="cls-29" d="M7142.22,7219.86v3.85H7140v-10.93h3.73a3.4,3.4,0,0,1,2.58,1,3.67,3.67,0,0,1,1,2.62,3.35,3.35,0,0,1-1,2.53,3.6,3.6,0,0,1-2.64.93Zm0-1.83h1.52a1.18,1.18,0,0,0,1-.42,1.81,1.81,0,0,0,.35-1.2,2.2,2.2,0,0,0-.35-1.3,1.13,1.13,0,0,0-.95-.49h-1.54V7218Z" transform="translate(-7103.87 -7173.08)"></path><path class="cls-29" d="M7148.77,7222.68a1.14,1.14,0,0,1,.33-.84,1.25,1.25,0,0,1,1.67,0,1.17,1.17,0,0,1,.32.84,1.12,1.12,0,0,1-.31.82,1.25,1.25,0,0,1-1.69,0A1.12,1.12,0,0,1,7148.77,7222.68Zm2-2.34h-1.76l-.25-7.56h2.26Z" transform="translate(-7103.87 -7173.08)"></path><g class="cls-30"><g class="cls-31"><path class="cls-32" d="M7125,7216.27a9.59,9.59,0,0,0-1.3.24,8,8,0,0,0-.46-1,7.07,7.07,0,0,0-.8-1.19,9.5,9.5,0,0,0,.87-1.05.38.38,0,0,0-.06-.51l-.61-.47c-.41-.3-.87-.64-1.28-.92l-.59-.4a.37.37,0,0,0-.5.08,1.7,1.7,0,0,1-3.17.44,8.45,8.45,0,0,0-.13-1.34.38.38,0,0,0-.4-.31c-.84.09-2.26.32-3.06.49a.38.38,0,0,0-.3.41,11.29,11.29,0,0,0,.23,1.27,7.38,7.38,0,0,0-.95.44,8.53,8.53,0,0,0-1.25.84,8.76,8.76,0,0,0-1.07-.86.38.38,0,0,0-.51.07c-.54.64-1.39,1.8-1.84,2.47a.37.37,0,0,0,.08.5,9.38,9.38,0,0,0,1.11.75,8.11,8.11,0,0,0-.65,2.42,11.51,11.51,0,0,0-1.44.14.38.38,0,0,0-.31.41c.07.83.29,2.23.45,3a.37.37,0,0,0,.41.29,7.91,7.91,0,0,0,1.37-.27c.13.31.27.62.43.92a7.34,7.34,0,0,0,.82,1.21,11.36,11.36,0,0,0-1,1.14.38.38,0,0,0,.06.51l.41.32c.46.35,1,.75,1.49,1.08l.58.39a.37.37,0,0,0,.5-.08,8.8,8.8,0,0,0,.81-1.18,7.85,7.85,0,0,0,2.43.63,10.31,10.31,0,0,0,.13,1.48.38.38,0,0,0,.41.3c.83-.08,2.25-.31,3.05-.48a.38.38,0,0,0,.3-.41,9.32,9.32,0,0,0-.26-1.38,7.9,7.9,0,0,0,1-.46,8.19,8.19,0,0,0,1.19-.79,9.77,9.77,0,0,0,1.12.92.39.39,0,0,0,.51-.07c.54-.65,1.39-1.81,1.84-2.48a.37.37,0,0,0-.08-.5,9.7,9.7,0,0,0-1.13-.76,7.86,7.86,0,0,0,.67-2.42,9.23,9.23,0,0,0,1.4-.15.37.37,0,0,0,.32-.4c-.08-.83-.29-2.24-.45-3A.37.37,0,0,0,7125,7216.27Zm-6,8.16a5.72,5.72,0,1,1,2.27-7.76A5.73,5.73,0,0,1,7119,7224.43Z" transform="translate(-7103.87 -7173.08)"></path></g><g class="cls-31"><path class="cls-33" d="M7113.88,7207.22a5.29,5.29,0,0,0-.69-.15,3.79,3.79,0,0,0,0-.58,4.62,4.62,0,0,0-.15-.74,5.62,5.62,0,0,0,.64-.34.21.21,0,0,0,.07-.26l-.2-.36-.44-.71-.21-.31a.2.2,0,0,0-.27-.06,4.28,4.28,0,0,0-.57.37.91.91,0,0,1-.86-1.49.19.19,0,0,0-.13-.23c-.43-.13-1.17-.3-1.6-.38a.2.2,0,0,0-.23.14,5,5,0,0,0-.14.67,3.5,3.5,0,0,0-.56,0,4.1,4.1,0,0,0-.79.16,3.59,3.59,0,0,0-.35-.64.19.19,0,0,0-.26-.07c-.39.21-1.05.6-1.41.84a.2.2,0,0,0-.06.26,6,6,0,0,0,.39.59,4.66,4.66,0,0,0-.81,1.06,4.71,4.71,0,0,0-.73-.22.2.2,0,0,0-.24.13c-.13.42-.31,1.16-.39,1.58a.19.19,0,0,0,.14.22,4.5,4.5,0,0,0,.73.15,3.26,3.26,0,0,0,0,.54,3.69,3.69,0,0,0,.15.75,5.16,5.16,0,0,0-.7.37.2.2,0,0,0-.07.26l.13.24c.15.26.34.57.51.83l.21.31a.19.19,0,0,0,.26.06,6.29,6.29,0,0,0,.64-.41,4,4,0,0,0,1.06.8,4.3,4.3,0,0,0-.23.75.18.18,0,0,0,.13.23c.43.13,1.17.31,1.6.39a.21.21,0,0,0,.23-.15,4.5,4.5,0,0,0,.15-.73,3.75,3.75,0,0,0,.58,0,4.62,4.62,0,0,0,.74-.15,4.87,4.87,0,0,0,.36.68.21.21,0,0,0,.27.07c.39-.21,1-.6,1.4-.84a.2.2,0,0,0,.07-.26,4.81,4.81,0,0,0-.4-.6,4.64,4.64,0,0,0,.82-1.05,4.56,4.56,0,0,0,.72.21.19.19,0,0,0,.23-.13c.13-.42.31-1.16.39-1.58A.19.19,0,0,0,7113.88,7207.22Zm-4.6,2.78a3,3,0,1,1,2.69-3.34A3,3,0,0,1,7109.28,7210Z" transform="translate(-7103.87 -7173.08)"></path></g><g class="cls-31"><path class="cls-34" d="M7127.83,7208.8c-.18.08-.38.1-.56.18a.77.77,0,0,0-.36.5c0,.1-.06.21-.1.31s-.07.23-.19.23-.19-.23-.22-.36h0a0,0,0,0,1,0,0c-.08-.31-.21-.63-.57-.71l-.31-.07h0a.48.48,0,0,1-.14-.05h0l-.1-.06a.11.11,0,0,1,0-.09.12.12,0,0,1,.08-.12,3.61,3.61,0,0,1,.65-.24.52.52,0,0,0,.4-.42,1.19,1.19,0,0,1,.2-.58c.1-.13.2,0,.27.1s0,0,0,0a.76.76,0,0,1,.06.2h0c0,.1,0,.21.05.33a.51.51,0,0,0,.42.34,2.3,2.3,0,0,1,.49.15l.11.06,0,0C7128.12,7208.64,7128,7208.74,7127.83,7208.8Z" transform="translate(-7103.87 -7173.08)"></path></g><g class="cls-31"><path class="cls-35" d="M7125.78,7205.31c-.25.11-.53.14-.78.25a1,1,0,0,0-.5.68c0,.15-.08.29-.13.43s-.1.32-.27.32-.27-.32-.31-.5h0s0,0,0,0c-.11-.44-.29-.87-.79-1-.14,0-.28-.05-.41-.09h0l-.19-.07-.06,0-.13-.07a.19.19,0,0,1-.07-.13.17.17,0,0,1,.12-.16,4.76,4.76,0,0,1,.89-.33.7.7,0,0,0,.55-.59,1.71,1.71,0,0,1,.28-.79c.14-.18.28,0,.37.15l0,0a.7.7,0,0,1,.08.27h0a4.46,4.46,0,0,0,.08.46.71.71,0,0,0,.58.47,3.41,3.41,0,0,1,.67.2l.14.09.06,0C7126.18,7205.08,7126,7205.22,7125.78,7205.31Z" transform="translate(-7103.87 -7173.08)"></path></g></g></svg> 